<svg xmlns="http://www.w3.org/2000/svg" viewBox="0 0 100 100" preserveAspectRatio="none">
  <path d="M 19.9 0.0 L 18.2 1.7 L 15.8 3.3 L 12.9 5.0 L 10.2 6.6 L 9.0 8.3 L 8.1 9.9 L 7.4 11.6 L 6.8 13.2 L 6.3 14.9 L 5.8 16.5 L 5.4 18.2 L 5.0 19.8 L 4.7 21.5 L 4.4 23.1 L 4.1 24.8 L 3.9 26.4 L 3.7 28.1 L 3.5 29.8 L 3.3 31.4 L 3.2 33.1 L 3.0 34.7 L 2.9 36.4 L 2.8 38.0 L 2.8 39.7 L 2.7 41.3 L 2.7 43.0 L 2.7 44.6 L 2.7 46.3 L 2.7 47.9 L 2.7 49.6 L 2.8 51.2 L 2.8 52.9 L 2.9 54.5 L 3.0 56.2 L 3.2 57.9 L 3.3 59.5 L 3.5 61.2 L 3.7 62.8 L 3.9 64.5 L 4.1 66.1 L 4.4 67.8 L 4.7 69.4 L 5.0 71.1 L 5.4 72.7 L 5.8 74.4 L 6.3 76.0 L 6.8 77.7 L 7.4 79.3 L 8.1 81.0 L 8.8 82.6 L 9.2 84.3 L 9.2 84.5 L 82.6 84.5 L 82.6 84.3 L 84.8 82.6 L 88.9 81.0 L 92.4 79.3 L 93.5 77.7 L 94.3 76.0 L 94.9 74.4 L 95.5 72.7 L 96.0 71.1 L 96.5 69.4 L 96.9 67.8 L 97.2 66.1 L 97.5 64.5 L 97.8 62.8 L 98.1 61.2 L 98.3 59.5 L 98.5 57.9 L 98.7 56.2 L 98.9 54.5 L 99.0 52.9 L 99.2 51.2 L 99.3 49.6 L 99.3 47.9 L 99.4 46.3 L 99.5 44.6 L 99.5 43.0 L 99.5 41.3 L 99.5 39.7 L 99.5 38.0 L 99.4 36.4 L 99.4 34.7 L 99.3 33.1 L 99.2 31.4 L 99.1 29.8 L 98.9 28.1 L 98.8 26.4 L 98.6 24.8 L 98.4 23.1 L 98.2 21.5 L 97.9 19.8 L 97.7 18.2 L 97.3 16.5 L 97.0 14.9 L 96.6 13.2 L 96.2 11.6 L 95.7 9.9 L 95.2 8.3 L 94.5 6.6 L 93.8 5.0 L 92.8 3.3 L 92.0 1.7 L 91.7 0.0 Z" fill="#E5EAEE" stroke="none"/>
</svg>